<mxfile host="65bd71144e">
    <diagram id="8HvDvdWridmRN_zoCDL2" name="Page-1">
        <mxGraphModel dx="1140" dy="596" grid="1" gridSize="10" guides="1" tooltips="1" connect="1" arrows="1" fold="1" page="1" pageScale="1" pageWidth="850" pageHeight="1100" math="0" shadow="0">
            <root>
                <mxCell id="0"/>
                <mxCell id="1" parent="0"/>
                <mxCell id="2" value="User" style="swimlane;whiteSpace=wrap;html=1;" parent="1" vertex="1">
                    <mxGeometry x="120" y="130" width="180" height="400" as="geometry"/>
                </mxCell>
                <mxCell id="3" value="_id : String" style="text;html=1;align=center;verticalAlign=middle;resizable=0;points=[];autosize=1;strokeColor=none;fillColor=none;" parent="2" vertex="1">
                    <mxGeometry x="45" y="35" width="80" height="30" as="geometry"/>
                </mxCell>
                <mxCell id="4" value="firstName : String" style="text;html=1;align=center;verticalAlign=middle;resizable=0;points=[];autosize=1;strokeColor=none;fillColor=none;" parent="2" vertex="1">
                    <mxGeometry x="25" y="65" width="120" height="30" as="geometry"/>
                </mxCell>
                <mxCell id="5" value="lastName : String" style="text;html=1;align=center;verticalAlign=middle;resizable=0;points=[];autosize=1;strokeColor=none;fillColor=none;" parent="2" vertex="1">
                    <mxGeometry x="25" y="95" width="120" height="30" as="geometry"/>
                </mxCell>
                <mxCell id="6" value="friends : Array&amp;lt;Object&amp;gt;" style="text;html=1;align=center;verticalAlign=middle;resizable=0;points=[];autosize=1;strokeColor=none;fillColor=none;" parent="2" vertex="1">
                    <mxGeometry x="10" y="125" width="150" height="30" as="geometry"/>
                </mxCell>
                <mxCell id="7" value="email : String" style="text;html=1;align=center;verticalAlign=middle;resizable=0;points=[];autosize=1;strokeColor=none;fillColor=none;" parent="2" vertex="1">
                    <mxGeometry x="40" y="155" width="90" height="30" as="geometry"/>
                </mxCell>
                <mxCell id="8" value="password : String" style="text;html=1;align=center;verticalAlign=middle;resizable=0;points=[];autosize=1;strokeColor=none;fillColor=none;" parent="2" vertex="1">
                    <mxGeometry x="25" y="185" width="120" height="30" as="geometry"/>
                </mxCell>
                <mxCell id="51" style="edgeStyle=orthogonalEdgeStyle;html=1;entryX=0;entryY=0.25;entryDx=0;entryDy=0;endArrow=classic;endFill=1;fillColor=#e3c800;strokeColor=#B09500;" edge="1" parent="1" source="11" target="41">
                    <mxGeometry relative="1" as="geometry"/>
                </mxCell>
                <mxCell id="11" value="picturePath : Striing Ref" style="text;html=1;align=center;verticalAlign=middle;resizable=0;points=[];autosize=1;strokeColor=none;fillColor=none;" parent="1" vertex="1">
                    <mxGeometry x="130" y="338" width="150" height="30" as="geometry"/>
                </mxCell>
                <mxCell id="12" value="location : String" style="text;html=1;align=center;verticalAlign=middle;resizable=0;points=[];autosize=1;strokeColor=none;fillColor=none;" parent="1" vertex="1">
                    <mxGeometry x="150" y="368" width="110" height="30" as="geometry"/>
                </mxCell>
                <mxCell id="13" value="occupation : String" style="text;html=1;align=center;verticalAlign=middle;resizable=0;points=[];autosize=1;strokeColor=none;fillColor=none;" parent="1" vertex="1">
                    <mxGeometry x="145" y="398" width="120" height="30" as="geometry"/>
                </mxCell>
                <mxCell id="14" value="occupation : String" style="text;html=1;align=center;verticalAlign=middle;resizable=0;points=[];autosize=1;strokeColor=none;fillColor=none;" parent="1" vertex="1">
                    <mxGeometry x="145" y="428" width="120" height="30" as="geometry"/>
                </mxCell>
                <mxCell id="15" value="viewedProfile : Number" style="text;html=1;align=center;verticalAlign=middle;resizable=0;points=[];autosize=1;strokeColor=none;fillColor=none;" parent="1" vertex="1">
                    <mxGeometry x="130" y="458" width="150" height="30" as="geometry"/>
                </mxCell>
                <mxCell id="16" value="impressions : Number" style="text;html=1;align=center;verticalAlign=middle;resizable=0;points=[];autosize=1;strokeColor=none;fillColor=none;" parent="1" vertex="1">
                    <mxGeometry x="135" y="488" width="140" height="30" as="geometry"/>
                </mxCell>
                <mxCell id="17" value="Post" style="swimlane;whiteSpace=wrap;html=1;swimlaneFillColor=none;gradientColor=none;" parent="1" vertex="1">
                    <mxGeometry x="360" y="13" width="180" height="350" as="geometry"/>
                </mxCell>
                <mxCell id="18" value="_id : String" style="text;html=1;align=center;verticalAlign=middle;resizable=0;points=[];autosize=1;strokeColor=none;fillColor=none;" parent="17" vertex="1">
                    <mxGeometry x="45" y="35" width="80" height="30" as="geometry"/>
                </mxCell>
                <mxCell id="19" value="userId : String Ref" style="text;html=1;align=center;verticalAlign=middle;resizable=0;points=[];autosize=1;strokeColor=none;fillColor=none;" parent="17" vertex="1">
                    <mxGeometry x="25" y="65" width="120" height="30" as="geometry"/>
                </mxCell>
                <mxCell id="20" value="firstName : String" style="text;html=1;align=center;verticalAlign=middle;resizable=0;points=[];autosize=1;strokeColor=none;fillColor=none;" parent="17" vertex="1">
                    <mxGeometry x="25" y="95" width="120" height="30" as="geometry"/>
                </mxCell>
                <mxCell id="21" value="lastName : String" style="text;html=1;align=center;verticalAlign=middle;resizable=0;points=[];autosize=1;strokeColor=none;fillColor=none;" parent="17" vertex="1">
                    <mxGeometry x="25" y="125" width="120" height="30" as="geometry"/>
                </mxCell>
                <mxCell id="22" value="location : String" style="text;html=1;align=center;verticalAlign=middle;resizable=0;points=[];autosize=1;strokeColor=none;fillColor=none;" parent="17" vertex="1">
                    <mxGeometry x="30" y="155" width="110" height="30" as="geometry"/>
                </mxCell>
                <mxCell id="23" value="description : String" style="text;html=1;align=center;verticalAlign=middle;resizable=0;points=[];autosize=1;strokeColor=none;fillColor=none;" parent="17" vertex="1">
                    <mxGeometry x="25" y="185" width="120" height="30" as="geometry"/>
                </mxCell>
                <mxCell id="24" value="userPicturePath : String Ref&amp;nbsp;" style="text;html=1;align=center;verticalAlign=middle;resizable=0;points=[];autosize=1;strokeColor=none;fillColor=none;" vertex="1" parent="17">
                    <mxGeometry x="-3" y="215" width="180" height="30" as="geometry"/>
                </mxCell>
                <mxCell id="28" value="comments : Array&amp;lt;String&amp;gt;" style="text;html=1;align=center;verticalAlign=middle;resizable=0;points=[];autosize=1;strokeColor=none;fillColor=none;" vertex="1" parent="17">
                    <mxGeometry x="9" y="317" width="160" height="30" as="geometry"/>
                </mxCell>
                <mxCell id="27" value="likes : Object &amp;lt;String Ref&amp;gt;" style="text;html=1;align=center;verticalAlign=middle;resizable=0;points=[];autosize=1;strokeColor=none;fillColor=none;" vertex="1" parent="17">
                    <mxGeometry x="5" y="284" width="160" height="30" as="geometry"/>
                </mxCell>
                <mxCell id="26" value="picturePath : String Ref" style="text;html=1;align=center;verticalAlign=middle;resizable=0;points=[];autosize=1;strokeColor=none;fillColor=none;" vertex="1" parent="17">
                    <mxGeometry x="15" y="250" width="150" height="30" as="geometry"/>
                </mxCell>
                <mxCell id="29" value="Friend (Sub Doc)" style="swimlane;whiteSpace=wrap;html=1;" vertex="1" parent="1">
                    <mxGeometry x="360" y="413" width="180" height="230" as="geometry"/>
                </mxCell>
                <mxCell id="30" value="_id : String" style="text;html=1;align=center;verticalAlign=middle;resizable=0;points=[];autosize=1;strokeColor=none;fillColor=none;" vertex="1" parent="29">
                    <mxGeometry x="45" y="35" width="80" height="30" as="geometry"/>
                </mxCell>
                <mxCell id="32" value="firstName : String" style="text;html=1;align=center;verticalAlign=middle;resizable=0;points=[];autosize=1;strokeColor=none;fillColor=none;" vertex="1" parent="29">
                    <mxGeometry x="25" y="68" width="120" height="30" as="geometry"/>
                </mxCell>
                <mxCell id="33" value="lastName : String" style="text;html=1;align=center;verticalAlign=middle;resizable=0;points=[];autosize=1;strokeColor=none;fillColor=none;" vertex="1" parent="29">
                    <mxGeometry x="25" y="98" width="120" height="30" as="geometry"/>
                </mxCell>
                <mxCell id="34" value="picturePath : String Ref" style="text;html=1;align=center;verticalAlign=middle;resizable=0;points=[];autosize=1;strokeColor=none;fillColor=none;" vertex="1" parent="29">
                    <mxGeometry x="10" y="128" width="150" height="30" as="geometry"/>
                </mxCell>
                <mxCell id="35" value="occupation : String" style="text;html=1;align=center;verticalAlign=middle;resizable=0;points=[];autosize=1;strokeColor=none;fillColor=none;" vertex="1" parent="29">
                    <mxGeometry x="25" y="158" width="120" height="30" as="geometry"/>
                </mxCell>
                <mxCell id="40" value="location : String" style="text;html=1;align=center;verticalAlign=middle;resizable=0;points=[];autosize=1;strokeColor=none;fillColor=none;" vertex="1" parent="29">
                    <mxGeometry x="30" y="188" width="110" height="30" as="geometry"/>
                </mxCell>
                <mxCell id="41" value="Images" style="swimlane;whiteSpace=wrap;html=1;" vertex="1" parent="1">
                    <mxGeometry x="360" y="690" width="180" height="70" as="geometry"/>
                </mxCell>
                <mxCell id="42" value="path" style="text;html=1;align=center;verticalAlign=middle;resizable=0;points=[];autosize=1;strokeColor=none;fillColor=none;" vertex="1" parent="41">
                    <mxGeometry x="60" y="35" width="50" height="30" as="geometry"/>
                </mxCell>
                <mxCell id="50" style="edgeStyle=orthogonalEdgeStyle;html=1;fillColor=#d80073;strokeColor=#A50040;entryX=-0.006;entryY=0.074;entryDx=0;entryDy=0;entryPerimeter=0;endArrow=ERmany;endFill=0;" edge="1" parent="1" target="29">
                    <mxGeometry relative="1" as="geometry">
                        <mxPoint x="370" y="440" as="targetPoint"/>
                        <mxPoint x="280" y="263" as="sourcePoint"/>
                        <Array as="points">
                            <mxPoint x="330" y="263"/>
                            <mxPoint x="330" y="430"/>
                        </Array>
                    </mxGeometry>
                </mxCell>
                <mxCell id="52" style="edgeStyle=orthogonalEdgeStyle;html=1;endArrow=classic;endFill=1;fillColor=#60a917;strokeColor=#2D7600;" edge="1" parent="1" source="34">
                    <mxGeometry relative="1" as="geometry">
                        <mxPoint x="530" y="740" as="targetPoint"/>
                        <Array as="points">
                            <mxPoint x="640" y="556"/>
                            <mxPoint x="640" y="740"/>
                        </Array>
                    </mxGeometry>
                </mxCell>
                <mxCell id="53" style="edgeStyle=orthogonalEdgeStyle;html=1;endArrow=classic;endFill=1;fillColor=#0050ef;strokeColor=#001DBC;" edge="1" parent="1" source="24">
                    <mxGeometry relative="1" as="geometry">
                        <mxPoint x="540" y="740" as="targetPoint"/>
                        <Array as="points">
                            <mxPoint x="790" y="243"/>
                            <mxPoint x="790" y="760"/>
                            <mxPoint x="540" y="760"/>
                        </Array>
                    </mxGeometry>
                </mxCell>
                <mxCell id="54" style="edgeStyle=orthogonalEdgeStyle;html=1;endArrow=classic;endFill=1;fillColor=#0050ef;strokeColor=#001DBC;" edge="1" parent="1" source="26">
                    <mxGeometry relative="1" as="geometry">
                        <mxPoint x="540" y="730" as="targetPoint"/>
                        <Array as="points">
                            <mxPoint x="750" y="278"/>
                            <mxPoint x="750" y="730"/>
                            <mxPoint x="540" y="730"/>
                        </Array>
                    </mxGeometry>
                </mxCell>
                <mxCell id="55" style="edgeStyle=orthogonalEdgeStyle;html=1;endArrow=classic;endFill=1;curved=1;fillColor=#0050ef;strokeColor=#001DBC;" edge="1" parent="1">
                    <mxGeometry relative="1" as="geometry">
                        <mxPoint x="300" y="180" as="targetPoint"/>
                        <mxPoint x="380" y="90" as="sourcePoint"/>
                        <Array as="points">
                            <mxPoint x="330" y="90"/>
                            <mxPoint x="330" y="180"/>
                        </Array>
                    </mxGeometry>
                </mxCell>
                <mxCell id="56" style="edgeStyle=orthogonalEdgeStyle;curved=1;html=1;endArrow=classic;endFill=1;fillColor=#60a917;strokeColor=#2D7600;" edge="1" parent="1">
                    <mxGeometry relative="1" as="geometry">
                        <mxPoint x="120" y="180" as="targetPoint"/>
                        <mxPoint x="370" y="450" as="sourcePoint"/>
                        <Array as="points">
                            <mxPoint x="330" y="450"/>
                            <mxPoint x="330" y="560"/>
                            <mxPoint x="30" y="560"/>
                            <mxPoint x="30" y="180"/>
                        </Array>
                    </mxGeometry>
                </mxCell>
                <mxCell id="59" style="edgeStyle=orthogonalEdgeStyle;curved=1;html=1;endArrow=classic;endFill=1;fillColor=#0050ef;strokeColor=#001DBC;" edge="1" parent="1" source="27">
                    <mxGeometry relative="1" as="geometry">
                        <mxPoint x="300" y="190" as="targetPoint"/>
                        <Array as="points">
                            <mxPoint x="330" y="300"/>
                            <mxPoint x="330" y="190"/>
                        </Array>
                    </mxGeometry>
                </mxCell>
            </root>
        </mxGraphModel>
    </diagram>
</mxfile>